<svg width="169" height="85" viewBox="0 0 169 85" fill="none" xmlns="http://www.w3.org/2000/svg">
<path d="M114.532 68.9023V40.408L99.0792 40.5308V49.0054H101.532V63.2526C101.532 64.4808 100.796 64.9721 98.7113 64.9721C96.3811 64.9721 95.8905 64.358 95.8905 63.1297V20.8795C95.8905 19.6513 96.5037 19.0372 98.7113 19.0372C100.919 19.0372 101.532 19.5285 101.532 20.8795V31.3192L114.532 30.9508V15.3526C114.532 11.7908 112.447 9.58001 108.645 9.70282L88.1641 10.4397C84.6075 10.5626 82.6452 13.1418 82.6452 16.458V67.4285C82.6452 71.6044 84.4849 73.3238 88.532 73.5695L108.768 74.5521C112.324 74.6749 114.532 72.5869 114.532 68.9023ZM151.079 30.091V11.2995C151.079 6.50949 148.504 4.79 144.334 5.40411L125.938 8.10616C121.768 8.72026 120.174 11.1767 120.174 14.7385V69.6392C120.174 72.9554 121.768 75.4118 125.57 76.0259L144.334 78.8508C148.504 79.4649 151.079 77.2541 151.079 73.0782V39.7938L136.117 39.9167V49.3738H138.57L138.692 67.1828C138.692 68.2882 138.079 68.7795 135.626 68.5339C133.419 68.2882 132.928 67.7969 132.928 66.6915V17.6861C132.928 16.7036 133.664 16.0895 135.749 15.9667C137.834 15.8439 138.57 16.5808 138.57 17.4405V30.7051L151.079 30.091ZM77.0037 67.5513V10.4397L64.0037 9.82564V63.9895C64.0037 64.9721 63.5132 65.5862 61.3056 65.709C59.0981 65.8318 58.3622 65.2177 58.3622 63.9895V9.45717L45.6075 8.22898V68.6567C45.6075 73.4467 48.183 75.5346 52.8433 75.1662L71.3622 73.938C75.532 73.6923 77.0037 71.3587 77.0037 67.5513ZM40.0886 76.5172V7.61488L27.5792 5.77256V78.3595L40.0886 76.5172ZM168.985 84.1321L168.862 0L156.475 2.82486L156.721 81.3072L168.985 84.1321ZM12.9849 81.1844V44.2154H22.6735V30.7051L12.9849 30.2139V17.1949L22.5509 18.3003V4.91283L0.720703 0.245633V84.0092L12.9849 81.1844Z" fill="#8a8a8a"/>
</svg>
